<svg id="Layer_1" data-name="Layer 1" xmlns="http://www.w3.org/2000/svg" xmlns:xlink="http://www.w3.org/1999/xlink" viewBox="0 0 60 60"><defs><style>.cls-1{fill:none;}.cls-2{fill:#34bfd2;}.cls-3{clip-path:url(#clip-path);}.cls-4{fill:#fff;}.cls-5{fill:#0c2b34;}.cls-6{fill:#f9b099;}.cls-7{fill:#f6917a;}.cls-8{fill:#2f6b99;}.cls-9{fill:#182040;}.cls-10{fill:#dcf2fd;}.cls-11{fill:#bed8e6;}.cls-12{fill:#80aabf;}.cls-13{fill:#93c3da;}.cls-14{fill:#5a99b3;}</style><clipPath id="clip-path"><path class="cls-1" d="M53.68.12V40.51c0,9.62-10.56,17.43-23.6,17.43S6.48,50.13,6.48,40.51V.12Z"/></clipPath></defs><title>doi_ngu_bac_si</title><path class="cls-2" d="M6.4,40C6.4,49.62,17,57.43,30,57.43S53.6,49.62,53.6,40,43,22.57,30,22.57,6.4,30.37,6.4,40Z"/><g class="cls-3"><path class="cls-4" d="M19.45,57.94l5.79-18.7s3.51-11.86-7.58-8.92c0,0-4.74.84-6.86,8.42L7.13,57.94Z"/><path class="cls-5" d="M36.24,17.07c.1-.36.19-.67.27-.9,1.24-3.91,2-13.41-2.54-14.63-5.49-1.47-4.5,7.22-4.58,9.67-.08,2.83,0,5.86,1.37,8.38.53.95,1.74,2.35,2.88,2.15S35.74,18.77,36.24,17.07Z"/><path class="cls-6" d="M36.33,14.08a4,4,0,0,1-2,3.55c-1.7.79-2.36-.77-2.36-2.3,0-1.23.54-3.35,1.93-3.79S36.31,12.94,36.33,14.08Z"/><rect class="cls-6" x="24.88" y="16.6" width="9.3" height="11.56"/><path class="cls-7" d="M31.34,23a12.4,12.4,0,0,0,1.34-6.4h-7.8v10C27.34,26.28,30.35,25.09,31.34,23Z"/><polygon class="cls-6" points="21.19 29.79 25.13 26.86 33.87 26.86 38.59 29.79 21.19 29.79"/><path class="cls-8" d="M47.19,57.94c-.1-.5-.21-1-.34-1.47l1.92-20.11A4.72,4.72,0,0,0,45.91,31L34.19,26.27a7.71,7.71,0,0,1-9.3.38L16.33,31s-2.78,1.59-3.41,6.74l.91,20.21Z"/><path class="cls-5" d="M22.87,7c-2.26,1.18-1.7,3.39-1.89,5.6-.08.9-.35,1.79-.47,2.67-.57-.9-.9-3.92-1-5C19,3.78,21.07-.27,19.68,5.7c-.32,1.39,3.56-2.93,4.92-3.35,1.94-.59,1.4,1.15.94,3.22Z"/><path class="cls-6" d="M33.58,17.31a9.36,9.36,0,0,1-3.13,5.26c-1.69,1.37-3.51,2.19-5.47,1a9.35,9.35,0,0,1-3.43-4.21,15.21,15.21,0,0,1,.59-12.84,6.11,6.11,0,0,1,10.27-.14C34.49,9.29,34.44,13.92,33.58,17.31Z"/><path class="cls-7" d="M34.79,15.68a.25.25,0,0,1-.23-.15c-.62-1.47-.48-2.95.33-3.53a.27.27,0,0,1,.36.06.25.25,0,0,1-.06.35c-.61.43-.68,1.71-.17,2.92a.24.24,0,0,1-.13.33Z"/><path class="cls-7" d="M34.49,13.68a.25.25,0,0,1-.2-.09.24.24,0,0,1,0-.35,1.85,1.85,0,0,1,1.54-.15.25.25,0,0,1,.17.31.24.24,0,0,1-.31.18,1.31,1.31,0,0,0-1.08.05A.25.25,0,0,1,34.49,13.68Z"/><path class="cls-7" d="M30.25,14.94c0,.31-.54.61-1.25.66s-1.3-.16-1.32-.48.53-.61,1.24-.66S30.23,14.63,30.25,14.94Z"/><path class="cls-7" d="M24,15.75c0,.31-.53.61-1.24.66s-1.31-.16-1.33-.48.53-.6,1.24-.65S23.94,15.44,24,15.75Z"/><path class="cls-7" d="M25.39,16.79a1.4,1.4,0,0,1-1.05-.34.67.67,0,0,1,0-.84c1.5-2.77,1-3.15.56-3.43A1.4,1.4,0,0,1,24.6,12a.24.24,0,0,1,0-.35.25.25,0,0,1,.36,0,1.3,1.3,0,0,0,.18.15c.7.48,1.19,1.15-.4,4.08-.1.18,0,.24,0,.27a1.71,1.71,0,0,0,1.42,0,.25.25,0,0,1,.2.46A2.46,2.46,0,0,1,25.39,16.79Z"/><path class="cls-5" d="M21.87,12.24a.33.33,0,0,1-.2-.59,2.88,2.88,0,0,1,2.88-.19.33.33,0,1,1-.27.6,2.19,2.19,0,0,0-2.21.11A.37.37,0,0,1,21.87,12.24Z"/><path class="cls-5" d="M27.2,11.79a.37.37,0,0,1-.24-.1.34.34,0,0,1,0-.47,2.47,2.47,0,0,1,3-.13.32.32,0,0,1,.07.46.32.32,0,0,1-.45.07,1.82,1.82,0,0,0-2.13.07A.32.32,0,0,1,27.2,11.79Z"/><path class="cls-5" d="M34,1.54c.51,0,.11,1.82.58,2.1,1,.63.09,1.47.41,2.54a37.83,37.83,0,0,1,.93,4.09,9.08,9.08,0,0,0,.27,1.82c-.25-.59-1.19-1.55-2-.6-.34.4-.39,2.14-.53,2.63-.18.65-.34.42-.9.5-.28-1.82-.4-7.07-2.36-7C28,7.68,19.11,10.05,19,5.76A5.05,5.05,0,0,1,24.17.38S31.14-1,34,1.54Z"/><path class="cls-7" d="M25.73,19h0a1.54,1.54,0,0,1-1.28-.75.25.25,0,0,1,.06-.35.25.25,0,0,1,.35.06,1.1,1.1,0,0,0,.88.54,2,2,0,0,0,1.44-.9.27.27,0,0,1,.36-.05.25.25,0,0,1,.05.35A2.48,2.48,0,0,1,25.73,19Z"/><path class="cls-9" d="M23.52,13.5c.05.42-.12.79-.37.82s-.5-.3-.55-.72.12-.79.38-.82S23.48,13.07,23.52,13.5Z"/><path class="cls-9" d="M29.05,12.89c.05.42-.12.79-.37.82s-.5-.3-.55-.72.12-.8.38-.82S29,12.46,29.05,12.89Z"/><path class="cls-4" d="M49,57.94l.42-22.4s.5-2.89-3.89-4.84l-9.89-3.86L30.91,38.92s-1,9.41-1.05,19Z"/><path class="cls-4" d="M21.89,57.94l1.3-17-2-12.4-5.51,2.6c-2.76,1.79-3.12,5.48-3.12,5.48l-.31,21.33Z"/><path class="cls-10" d="M39.78,57.94H52.87L50.13,37.53s0-7-8.37-8.18c0,0-5.43,1.43-3.19,11.93Z"/><path class="cls-11" d="M19.17,57.34a.25.25,0,0,1-.25-.24,26.46,26.46,0,0,0-.66-4.46c-.73-3.54-1.47-7.2.95-9.67a.44.44,0,0,1,0-.32l0-.08a2.82,2.82,0,0,1-1.27-.87,2.75,2.75,0,0,1-.62-2.6,18,18,0,0,0,.74-4.21,17,17,0,0,1,.74-4.18.26.26,0,0,1,.32-.16.25.25,0,0,1,.16.32,16.36,16.36,0,0,0-.72,4.07,18.09,18.09,0,0,1-.77,4.31,2.32,2.32,0,0,0,.54,2.12,2.23,2.23,0,0,0,1.46.82,1.56,1.56,0,0,1,.49,0h0a.11.11,0,0,1,.07,0h0a.12.12,0,0,1,.06.06h0a.16.16,0,0,1,.05.12.11.11,0,0,1,0,.08l0,.08,0,0a1.81,1.81,0,0,1-.68.56c-2.47,2.29-1.73,5.9-1,9.4a27,27,0,0,1,.67,4.55.25.25,0,0,1-.25.25Z"/><path class="cls-11" d="M33.91,57.25l-.09,0a.25.25,0,0,1-.15-.32,28.18,28.18,0,0,0,1.27-5.34,28.67,28.67,0,0,1,1-4.43c.35-1.41-.69-2.58-1.61-3.62-.23-.26-.45-.52-.64-.76l-.12-.15a.19.19,0,0,1,0-.08h0v-.08h0a.14.14,0,0,1,0-.07h0v0h0l.06-.07h0l.06,0h0a8,8,0,0,1,2.3-.29c1-2.49.48-5.29,0-8-.18-1-.37-2-.48-3a.25.25,0,0,1,.22-.28.27.27,0,0,1,.28.23c.11.95.29,2,.47,2.93.53,2.84,1.07,5.77-.07,8.44a.25.25,0,0,1-.23.15,10.88,10.88,0,0,0-1.47.08.54.54,0,0,1,.12.24.4.4,0,0,1-.13.42h0c1,1.07,2.13,2.41,1.71,4.09a29.09,29.09,0,0,0-1,4.37,27.9,27.9,0,0,1-1.29,5.44A.25.25,0,0,1,33.91,57.25Z"/><path class="cls-9" d="M12.41,57.17h0a.25.25,0,0,1-.24-.25l0-1.88c.1-3.68.19-7.49.19-11.23a.25.25,0,0,1,.25-.25h0a.25.25,0,0,1,.25.25c0,3.75-.09,7.56-.18,11.24l-.05,1.88A.24.24,0,0,1,12.41,57.17Z"/><path class="cls-9" d="M39,47.72a.25.25,0,0,1-.25-.23c-.13-1.41-.26-2.68-.37-3.82-.74-7.43-1-9.94,1.15-13a.24.24,0,0,1,.35-.06.25.25,0,0,1,.06.35c-2,2.93-1.81,5.19-1.06,12.68.11,1.15.24,2.41.37,3.82a.26.26,0,0,1-.23.28Z"/><path class="cls-9" d="M18.65,52c0,.21-.22.7-.44.69L17,52.23a.4.4,0,0,1-.36-.42h0a.39.39,0,0,1,.42-.37l1.23-.14c.22,0,.37.43.35.65Z"/><path class="cls-9" d="M20.23,52.05c0,.22.12.74.34.75l1.24-.24a.39.39,0,0,0,.42-.37h0a.39.39,0,0,0-.36-.42l-1.21-.31c-.21,0-.42.38-.43.59Z"/><path class="cls-9" d="M22.12,52.35H22l0-.25c1.57.1,2.08-1.81,2.09-1.83.8-4.16-2.51-10.9-2.54-11-.42-.85-1.07-.73-1.07-.73H20.4s-.63-.19-1.16.58c0,.07-4.23,6.29-4,10.53,0,.07.25,2,1.82,2.09L17,52c-1.78-.12-2.05-2.3-2.05-2.32C14.75,45.36,18.86,39.26,19,39a1.31,1.31,0,0,1,1.41-.68,1.3,1.3,0,0,1,1.31.87c.14.28,3.38,6.88,2.56,11.14C24.31,50.35,23.78,52.35,22.12,52.35Z"/><path class="cls-9" d="M20.27,38.42H20c0-.1.15-10.09,3.12-11.28l.1.23C20.79,28.36,20.28,36.33,20.27,38.42Z"/><path class="cls-9" d="M34.94,41.81h0a.12.12,0,0,1-.08-.16,53.74,53.74,0,0,0,2.09-8.47c0-.26.07-.52.1-.77.31-2.31.57-4.3-1.48-5.45a.13.13,0,0,1-.05-.17.12.12,0,0,1,.17-.05c2.2,1.24,1.91,3.41,1.61,5.7,0,.25-.07.51-.1.77a55.54,55.54,0,0,1-2.1,8.52A.14.14,0,0,1,34.94,41.81Z"/><path class="cls-12" d="M33,43.75a1.83,1.83,0,1,1,1.46-3.36l.87.37-1.47,3.37Z"/><path class="cls-13" d="M36.22,43.14a1.84,1.84,0,1,1-.95-2.41A1.84,1.84,0,0,1,36.22,43.14Z"/><path class="cls-14" d="M35.38,42.78a.92.92,0,0,1-1.69-.73.92.92,0,0,1,1.69.73Z"/><path class="cls-9" d="M34.74,44.36h0a2.38,2.38,0,0,1-1.94-.93,2,2,0,0,1-.17-1.72,1.85,1.85,0,0,1,1-1.05,2.09,2.09,0,0,1,1.66,0,.12.12,0,0,1,.06.16.14.14,0,0,1-.16.07,1.86,1.86,0,0,0-1.46,0,1.69,1.69,0,0,0-.91.91A1.71,1.71,0,0,0,33,43.29a2.19,2.19,0,0,0,1.75.82.13.13,0,0,1,0,.25Z"/><path class="cls-9" d="M33.7,44.13h0A2.28,2.28,0,0,1,32,42.91a2.16,2.16,0,0,1,.42-2.2c.58-.65,1.32-.72,2.45-.23a.14.14,0,0,1,.07.17.13.13,0,0,1-.17.06c-1-.45-1.66-.4-2.16.17a1.9,1.9,0,0,0-.38,1.93c.08.19.31.76,1.54,1.07a.12.12,0,0,1,.09.15A.12.12,0,0,1,33.7,44.13Z"/><path class="cls-9" d="M36,43.4a.12.12,0,0,1-.08-.22,1.34,1.34,0,0,0,.29-1,1.09,1.09,0,0,0-.38-.86.14.14,0,0,1,0-.18.12.12,0,0,1,.17,0,1.32,1.32,0,0,1,.49,1.05,1.53,1.53,0,0,1-.38,1.24A.11.11,0,0,1,36,43.4Z"/></g></svg>