<svg id="Layer_1" data-name="Layer 1" xmlns="http://www.w3.org/2000/svg" xmlns:xlink="http://www.w3.org/1999/xlink" viewBox="0 0 60 60"><defs><style>.cls-1{fill:none;}.cls-2{fill:#34bfd2;}.cls-3{clip-path:url(#clip-path);}.cls-4{fill:#072552;}.cls-5{fill:#dcf2fd;}.cls-6{fill:#f9b099;}.cls-7{fill:#f6917a;}.cls-8{fill:#182040;}.cls-9{fill:#36688f;}.cls-10{fill:#fff;}.cls-11{fill:#bed8e6;}.cls-12{fill:#80aabf;}.cls-13{fill:#93c3da;}.cls-14{fill:#5a99b3;}</style><clipPath id="clip-path"><path class="cls-1" d="M53.6.12V40.51C53.6,50.13,43,57.94,30,57.94S6.4,50.13,6.4,40.51V.12Z"/></clipPath></defs><title>doi_ngu_bac_si</title><path class="cls-2" d="M6.4,40C6.4,49.62,17,57.43,30,57.43S53.6,49.62,53.6,40,43,22.57,30,22.57,6.4,30.37,6.4,40Z"/><g class="cls-3"><path class="cls-4" d="M33.05.43S39.85,2,40.12,11.62l.33,38.73s-10.73,5.37-21.26-.58L20.38,5.71S21.17-1.86,33.05.43Z"/><path class="cls-5" d="M8.49,57.94H19.34c2-10.72,2.63-13.67,3.63-20,0,0,2.37-8.13-1.87-10.83h-.33a10.32,10.32,0,0,0-7.17,6.74A83.45,83.45,0,0,0,8.49,57.94Z"/><path class="cls-6" d="M19.34,57.94c-4.18-15.27.27-30.32.27-30.32a36.81,36.81,0,0,1,6.58-1.5l6.9.79A61.31,61.31,0,0,1,45.16,33L35.35,57.94Z"/><rect class="cls-6" x="24.22" y="17.67" width="11.6" height="7.82" transform="translate(8.39 51.57) rotate(-89.92)"/><path class="cls-7" d="M31.8,22.11a14.49,14.49,0,0,0,1.5-6.32H26.12l0,10.08A8.75,8.75,0,0,0,31.8,22.11Z"/><path class="cls-6" d="M37.42,13.09a4.09,4.09,0,0,1-2.09,3.65c-1.76.8-2.43-.81-2.42-2.39,0-1.27.57-3.45,2-3.89S37.41,11.91,37.42,13.09Z"/><path class="cls-6" d="M33.8,17a9.66,9.66,0,0,1-3.93,4.95c-1.91,1.16-3.88,1.75-5.72.22a9.73,9.73,0,0,1-2.92-4.77,15.72,15.72,0,0,1,2.37-13A6.3,6.3,0,0,1,34.11,5.61C35.83,8.91,35.14,13.64,33.8,17Z"/><path class="cls-7" d="M35.29,15.49h.08a.26.26,0,0,0,.18-.33c-.35-1.3-.11-2.59.57-3a.27.27,0,1,0-.25-.47c-.92.48-1.27,2-.84,3.56A.29.29,0,0,0,35.29,15.49Z"/><path class="cls-7" d="M36.62,13.49a.27.27,0,0,0,.1-.51,1.89,1.89,0,0,0-1.6-.07.27.27,0,0,0,.28.46,1.43,1.43,0,0,1,1.11.1Z"/><path class="cls-8" d="M24,12.1c0,.45-.27.81-.54.79S23,12.49,23,12s.27-.81.54-.8S24,11.64,24,12.1Z"/><path class="cls-8" d="M29.88,12.47c0,.46-.27.81-.54.79s-.47-.4-.44-.85.27-.81.54-.79S29.91,12,29.88,12.47Z"/><path class="cls-7" d="M25.73,16.05a.27.27,0,0,0,.26-.23.27.27,0,0,0-.23-.31,1.46,1.46,0,0,1-1.13-.57.4.4,0,0,1-.07-.21,4.3,4.3,0,0,1,.6-.28,1.7,1.7,0,0,0,.58-.3c.35-.36.49-.77.75-2.34a.26.26,0,0,0-.22-.31.28.28,0,0,0-.31.22c-.25,1.5-.37,1.82-.6,2A3.46,3.46,0,0,1,25,14c-.52.21-.82.34-.9.58a.88.88,0,0,0,.12.69,2.08,2.08,0,0,0,1.52.81Z"/><path class="cls-7" d="M30.72,14.47c0,.32-.63.55-1.36.5s-1.31-.34-1.29-.67.63-.54,1.36-.5S30.74,14.15,30.72,14.47Z"/><path class="cls-7" d="M24.18,14.06c0,.33-.63.55-1.36.5s-1.31-.34-1.29-.67.63-.54,1.37-.5S24.21,13.74,24.18,14.06Z"/><path class="cls-4" d="M30.67,11.42a.48.48,0,0,0,.23-.07.39.39,0,0,0,.1-.56,2.32,2.32,0,0,0-2.92-.4A.41.41,0,0,0,28,11a.4.4,0,0,0,.56.11,1.54,1.54,0,0,1,1.8.19A.42.42,0,0,0,30.67,11.42Z"/><path class="cls-4" d="M24.69,11a.39.39,0,0,0,.23-.07.39.39,0,0,0,.1-.56A2.3,2.3,0,0,0,22.1,10a.4.4,0,0,0,.46.66,1.54,1.54,0,0,1,1.8.19A.42.42,0,0,0,24.69,11Z"/><path class="cls-4" d="M33,13.36c1.1-.62,1.3-1.23,1.49-1.12h0a1.47,1.47,0,0,1,1.44-1.39c.63,0,1.22.92,1.4,1.55,0-.66,0-1.61,0-2.32A14.65,14.65,0,0,0,37.27,8,9.77,9.77,0,0,0,36.2,4,6,6,0,0,0,32.29.67c-2.2-.55-5.79-1-7.66.33-1,.69-.16.87,0,3.88C24.6,4.88,33.22,2.83,33,13.36Z"/><path class="cls-4" d="M21.11,9.91C20,7.21,19.54,2.62,24.54.82c1.23-.44,4.23-.72,5.22.38C32,3.62,27,4.58,25.69,4.71,23.58,4.92,22.14,5.5,21.11,9.91Z"/><path class="cls-7" d="M27.08,17.8a2.27,2.27,0,0,0,2.08-1.48.27.27,0,1,0-.5-.19,1.72,1.72,0,0,1-2.13,1.05.27.27,0,0,0-.34.17.28.28,0,0,0,.18.34A2.56,2.56,0,0,0,27.08,17.8Z"/><path class="cls-4" d="M33.05,9.29a12.4,12.4,0,0,0-5-1.12l-.87-2-.19,2-2.2-.06c-.22,0-.39-1-.39-1l-.38,1s-2.1.07-3.12,0c0,0,0-6.26,7.3-5.36C28.17,2.74,33.22,3.12,33.05,9.29Z"/><path class="cls-9" d="M44.11,50.34c-.23.55-2.4,4.23-4.52,7.6H14c-2-5.88-3.44-11.91-1.94-16.3a103.46,103.46,0,0,1,7.53-14l1.44-.48c-2.37,8.49,6.31,8.67,12.21,6,.61-.28,5.65-3.74,6-3.56,0,0,1.83.89,1.83.89-4,3.11-2.77,8-2.33,10.78C39.48,45.75,45,48.16,44.11,50.34Z"/><path class="cls-10" d="M43.93,57.94H30L28.31,41.43C32.47,31,35.56,27.9,35.56,27.9,50.71,33,47,41.9,47,41.9Z"/><path class="cls-10" d="M20.71,57.94H12.36L11.15,44.69c.22-7.14,8.46-17.07,8.46-17.07a21.76,21.76,0,0,1,5.08-1.31l-4,13.84Z"/><path class="cls-11" d="M32.62,57.05a.27.27,0,0,0,.27-.25c.19-3.2.6-6,1-9q.13-.89.27-1.83a5.14,5.14,0,0,0-1.34-3.2.39.39,0,0,0,.1-.29.13.13,0,0,0,0-.06c1.17.17,2.37.19,2.85-1.22.3-2.11.44-4,.57-5.91.11-1.55.22-3.16.42-4.85a.27.27,0,0,0-.53-.06c-.2,1.7-.32,3.31-.43,4.87-.13,1.86-.26,3.79-.55,5.83-.36,1.06-1.26,1-2.71.74l-.62-.1a.29.29,0,0,0-.13,0h0l0,0h0l-.08.08,0,0h0a.36.36,0,0,0,0,.11h0v.06h0s0,0,0,.05a1.42,1.42,0,0,0,.56.74A5.08,5.08,0,0,1,33.66,46c-.09.58-.18,1.19-.27,1.79-.43,3-.84,5.78-1,9a.27.27,0,0,0,.25.28Z"/><path class="cls-11" d="M18.44,57.19h0a.27.27,0,0,0,.23-.3c-.11-.71-.22-1.42-.34-2.14-.55-3.32-1.12-6.74-.25-9.77,0,0,0,0,0-.07,0-.77.65-1.57,1.78-2.22a1.13,1.13,0,0,0,.94-.48l0,0h0l0-.06h0a.36.36,0,0,0,0-.1h0a.13.13,0,0,0,0-.06.26.26,0,0,0-.21-.2h0A3.45,3.45,0,0,1,18.2,40a1.93,1.93,0,0,1,.41-1.9A19.75,19.75,0,0,0,23,29.64a.27.27,0,0,0-.2-.32.27.27,0,0,0-.32.21,19.54,19.54,0,0,1-4.31,8.25,2.43,2.43,0,0,0-.49,2.42A3.5,3.5,0,0,0,19.63,42a.64.64,0,0,0-.08.14.51.51,0,0,0,0,.17,3.38,3.38,0,0,0-1.93,2.57c-.88,3.13-.31,6.6.25,10,.12.72.23,1.43.34,2.14A.26.26,0,0,0,18.44,57.19Z"/><path class="cls-8" d="M31.54,46.6c-.06.23,0,.79.24.85l1.34-.06a.42.42,0,0,0,.5-.32h0a.42.42,0,0,0-.31-.5l-1.22-.52c-.23,0-.5.33-.55.55Z"/><path class="cls-8" d="M29.9,46.24c0,.22-.36.7-.58.65l-1.2-.62a.42.42,0,0,1-.31-.5h0a.42.42,0,0,1,.5-.32l1.32,0c.23,0,.32.52.27.75Z"/><path class="cls-8" d="M33.65,47.22c1.53,0,2.31-1.78,2.32-1.8,1.56-4.35-.78-11.83-.88-12.15-.33-1-1.07-1.13-1.24-1.13a1.38,1.38,0,0,0-1.6.49c-.23.24-5.55,6-6,10.59,0,0-.07,2.37,1.78,2.78l.06-.26c-1.63-.37-1.57-2.41-1.57-2.5.45-4.49,5.88-10.37,5.93-10.43a1.14,1.14,0,0,1,1.32-.42l0,0h0s.71,0,1,.94c0,.08,2.41,7.72.89,12,0,.08-.85,2-2.49,1.58l-.06.26A2.1,2.1,0,0,0,33.65,47.22Z"/><path class="cls-8" d="M34.26,32.37c.33-1.13.87-4.2.2-5.09a.64.64,0,0,0-.52-.27v.26a.34.34,0,0,1,.3.17c.56.74.14,3.6-.24,4.86Z"/><path class="cls-8" d="M17,41.59a.12.12,0,0,0,.13-.12,24.38,24.38,0,0,1,1.57-7.34,30.3,30.3,0,0,1,4-7.49.14.14,0,0,0,0-.19.14.14,0,0,0-.19,0A31.14,31.14,0,0,0,18.47,34a25.19,25.19,0,0,0-1.58,7.42.13.13,0,0,0,.13.14Z"/><path class="cls-12" d="M17.83,44.36a2,2,0,1,0,.27-3.9l-1-.07-.27,3.9Z"/><path class="cls-13" d="M15.09,42.21a2,2,0,1,0,2.09-1.81A2,2,0,0,0,15.09,42.21Z"/><path class="cls-14" d="M16.07,42.28a1,1,0,0,0,1.95.14,1,1,0,1,0-1.95-.14Z"/><path class="cls-8" d="M17.23,44.4a2.05,2.05,0,0,0,1-.23,2.09,2.09,0,0,0,1-1.54,1.93,1.93,0,0,0-.47-1.51,2.25,2.25,0,0,0-1.54-.86.13.13,0,0,0-.14.13.13.13,0,0,0,.12.14,2,2,0,0,1,1.36.76,1.75,1.75,0,0,1,.41,1.3,1.82,1.82,0,0,1-.88,1.34,2.29,2.29,0,0,1-2-.08.14.14,0,0,0-.18.07.13.13,0,0,0,.07.17A3.27,3.27,0,0,0,17.23,44.4Z"/><path class="cls-8" d="M17.94,44.51a1.92,1.92,0,0,0,1.3-.43,2.29,2.29,0,0,0,.68-2.28c-.23-.9-.89-1.33-2.2-1.42a.13.13,0,1,0,0,.26c1.19.09,1.76.44,2,1.23a2,2,0,0,1-.59,2c-.17.14-.67.57-2,.25a.13.13,0,0,0-.16.1.14.14,0,0,0,.1.16A3.94,3.94,0,0,0,17.94,44.51Z"/><path class="cls-8" d="M15.26,42.59h0a.13.13,0,0,0,.08-.17,1.43,1.43,0,0,1,.23-1.13,1.2,1.2,0,0,1,.78-.63.13.13,0,0,0,.12-.14.12.12,0,0,0-.15-.12,1.44,1.44,0,0,0-1,.75,1.65,1.65,0,0,0-.25,1.36A.13.13,0,0,0,15.26,42.59Z"/><path class="cls-6" d="M43.77,57.94l-5-16.71s-2.15-12,6.08-8.44c0,0,2.86,1.47,3.41,6.38l2.47,18.77Z"/><path class="cls-5" d="M40.45,57.94l-3-19s-1.37-7,4.47-8.14a9.14,9.14,0,0,1,6.65,6.85l2.89,20.29Z"/><path class="cls-8" d="M39,48.56h0a.27.27,0,0,0,.21-.31l-.15-.8c-1.48-8-2.09-11.36.33-14.82a.27.27,0,1,0-.43-.31c-2.56,3.65-1.93,7-.42,15.23l.14.79A.28.28,0,0,0,39,48.56Z"/><path class="cls-8" d="M40.84,57.29h.07A.27.27,0,0,0,41.1,57c-.29-1.1-.55-2.26-.77-3.44a.27.27,0,0,0-.53.1q.35,1.8.78,3.48A.27.27,0,0,0,40.84,57.29Z"/></g></svg>