<svg id="Layer_1" data-name="Layer 1" xmlns="http://www.w3.org/2000/svg" xmlns:xlink="http://www.w3.org/1999/xlink" viewBox="0 0 60 60"><defs><style>.cls-1{fill:url(#linear-gradient);}.cls-2{fill:url(#linear-gradient-2);}.cls-3,.cls-8{fill:#f2f2f2;}.cls-3{opacity:0.3;}.cls-4{fill:url(#linear-gradient-3);}.cls-5{fill:url(#linear-gradient-4);}.cls-6{fill:url(#linear-gradient-5);}.cls-7{fill:#fff;}.cls-8{opacity:0.2;}</style><linearGradient id="linear-gradient" x1="40.39" y1="32.7" x2="48.67" y2="51.2" gradientUnits="userSpaceOnUse"><stop offset="0.01" stop-color="#077994"/><stop offset="0.19" stop-color="#1997ae"/><stop offset="0.45" stop-color="#32c0d2"/></linearGradient><linearGradient id="linear-gradient-2" x1="21.95" y1="32.69" x2="9.95" y2="50.01" xlink:href="#linear-gradient"/><linearGradient id="linear-gradient-3" x1="17.9" y1="18.14" x2="8.31" y2="22.39" gradientUnits="userSpaceOnUse"><stop offset="0.01" stop-color="#077994"/><stop offset="0.62" stop-color="#21a3b9"/><stop offset="1" stop-color="#32c0d2"/></linearGradient><linearGradient id="linear-gradient-4" x1="41.97" y1="18.21" x2="55.81" y2="24.52" gradientUnits="userSpaceOnUse"><stop offset="0.01" stop-color="#077994"/><stop offset="0.06" stop-color="#0a7e99"/><stop offset="0.46" stop-color="#20a2b8"/><stop offset="0.79" stop-color="#2db8cb"/><stop offset="1" stop-color="#32c0d2"/></linearGradient><linearGradient id="linear-gradient-5" x1="8.31" y1="24.96" x2="54.93" y2="36.62" gradientUnits="userSpaceOnUse"><stop offset="0.35" stop-color="#32c0d2"/><stop offset="0.48" stop-color="#2ebacd"/><stop offset="0.67" stop-color="#24a9be"/><stop offset="0.87" stop-color="#138da5"/><stop offset="0.99" stop-color="#077994"/></linearGradient></defs><title>icons</title><path class="cls-1" d="M47,45l.9,5.69a47.76,47.76,0,0,1-7-3.77,47.26,47.26,0,0,1-4.25-3.1,7.42,7.42,0,0,0-.09-2c-.12-1-.18-1.56.19-2l.4-.45c.5-.53,1.07-1,1.67-1.55s1.1-1,1.63-1.49l.57.46.9.67c.3.22.63.44,1,.66s.68.44,1,.65c.7.42,1.39.79,2.07,1.12l.68.32c.67.3,1.32.57,2,.79l.92.33c.61.19,1.19.36,1.73.5L52,42l.25,0,.49.1a3.73,3.73,0,0,0,.46.09l.21,0L47,45Z"/><path class="cls-2" d="M23.07,40.12A16.2,16.2,0,0,0,23,44,47.06,47.06,0,0,1,19,47a48.34,48.34,0,0,1-7,3.77l.9-5.69h0L6.38,42.3l.22,0,.46-.09.48-.1.25,0,.79-.19c.55-.14,1.13-.31,1.73-.5l.92-.33c.64-.22,1.29-.49,2-.79l.67-.32c.68-.33,1.38-.7,2.08-1.12.36-.21.7-.43,1-.65l.31-.21c.72-.48,1.38-1,2-1.47h0c1,1.06,2.1,2.09,3.25,3.09l.13.11A2,2,0,0,1,23.07,40.12Z"/><path class="cls-3" d="M22.52,39.53c-.53.43-1.1.88-1.7,1.31a32.51,32.51,0,0,1-8,4.19L6.38,42.3l.22,0,.46-.09a4.1,4.1,0,0,0,.48-.1l.25,0a25.56,25.56,0,0,0,3.44-1c.64-.22,1.29-.49,2-.79l.67-.32c.68-.33,1.38-.7,2.08-1.12.36-.21.7-.43,1-.65a27.77,27.77,0,0,0,2.29-1.68C20.28,37.5,21.37,38.53,22.52,39.53Z"/><path class="cls-3" d="M53.44,42.3,47,45h0a32.3,32.3,0,0,1-8-4.19c-.68-.48-1.31-1-1.89-1.47.5-.53,1.07-1,1.67-1.55s1.1-1,1.63-1.49l.57.46.9.67c.3.22.63.44,1,.66s.68.44,1,.65c.7.42,1.39.79,2.07,1.12l.68.32c.67.3,1.32.57,2,.79l.92.33c.61.19,1.19.36,1.73.5L52,42l.25,0a4.74,4.74,0,0,0,.49.1,3.73,3.73,0,0,0,.46.09Z"/><path class="cls-4" d="M12.75,27.68a40.33,40.33,0,0,0,4.47,6.49,24.72,24.72,0,0,1-3.93-1.65C7.37,29.39,2,23.21.43,17.83A8.16,8.16,0,0,1,1,11.27c.89-1.47,2.73-3.1,6.54-3.78.1,1.21.21,2.49.35,3.81-1.77.36-3,1-3.54,1.92a4.75,4.75,0,0,0-.11,3.59c1,3.68,4.51,8,8.56,10.86Z"/><path class="cls-5" d="M59.57,17.83C58,23.21,52.63,29.39,46.7,32.52a24,24,0,0,1-4.5,1.82,40.66,40.66,0,0,0,4.33-6.18c4.35-2.83,8.18-7.45,9.29-11.35a4.75,4.75,0,0,0-.12-3.59c-.58-1-1.91-1.63-3.84-2,.14-1.25.23-2.52.28-3.82,4.06.65,6,2.33,6.91,3.85A8.16,8.16,0,0,1,59.57,17.83Z"/><path class="cls-6" d="M47.31,1.88C43.69,1.25,40.05.7,36.39.34c-1.66-.16-3.32-.26-5-.31h0l-.63,0h-.54c-1.72,0-3.44,0-5.16.11-1,.06-2,.13-3,.23-1.43.13-2.86.3-4.28.52-.7.1-1.39.21-2.08.33-1.05.18-2.09.37-3.13.59-2.84.59-4.18,2.16-4,5,0,.17,0,.35,0,.53.1,1.26.21,2.53.35,3.8A54.38,54.38,0,0,0,10,16.94a37.85,37.85,0,0,0,5,12.1,41,41,0,0,0,4.36,5.7l.88.93q1.53,1.59,3.26,3.08h0c.4.34.9,1,.84,1.38a15.18,15.18,0,0,0-.13,2.92,13.71,13.71,0,0,0,2,6.43c-2.31,1.52-4.51,3.05-6.79,4.44S16.44,57.43,17.07,60H42.53c.66-2.66,0-4.68-2.36-6.12s-4.4-2.87-6.49-4.24c.56-1.86,1-3.64,1.63-5.38a3.53,3.53,0,0,0,.13-1.41c-.09-1.31-.56-2.66.35-3.77.14-.17.28-.33.43-.49,1-1.08,2.25-2,3.3-3l.23-.24c.15-.15.29-.31.43-.46a41.16,41.16,0,0,0,4.22-5.46,41.39,41.39,0,0,0,6.27-18.31q.21-1.89.27-3.81,0-.51,0-1A4.2,4.2,0,0,0,47.31,1.88ZM18.07,10.07h.05l1.35-.18h0l1.32-.15h0l1.37-.14c2.52-.22,5-.33,7.55-.33a89.45,89.45,0,0,1,13.09,1c-.49,3.15-1,6.13-1.44,9.21a79,79,0,0,0-11.64-.88c-2.26,0-4.51.1-6.78.31h0l-.43,0h0c-.4,0-.8.07-1.19.12l-.47.05-.46.06h-.05l-1,.13h0l-1.18.17c-.48-3.06-1-6.07-1.45-9.21Z"/><path class="cls-7" d="M15.74,1.2c.69-.12,1.38-.23,2.08-.33C17.12,1,16.43,1.08,15.74,1.2Zm6.83,17.73.43,0h0Zm0,0,.43,0h0Zm0,0,.43,0h0Zm0,0,.43,0h0Zm0,0,.43,0h0Z"/><path class="cls-8" d="M29.92,40.13a2.9,2.9,0,0,0-.42-1.38l-.39-.68A54.26,54.26,0,0,1,23,18.89h0l-.43,0h0c-.4,0-.8.07-1.19.12l-.47.05-.46.06h-.05l-1,.13h0l-1.18.17c-.48-3.06-1-6.07-1.45-9.21l1.35-.2h.05l1.35-.18h0l1.32-.15h0l1.37-.14L22.1,6.78c-.1-2.83.57-4.4,2-5A22.25,22.25,0,0,1,31.41,0l-.63,0h-.54c-1.72,0-3.44,0-5.16.11-1,.06-2,.13-3,.23-1.43.13-2.86.3-4.28.52-.7.1-1.39.21-2.08.33-1.05.18-2.09.37-3.13.59-2.84.59-4.18,2.16-4,5,0,.17,0,.35,0,.53.1,1.26.21,2.53.35,3.8A54.38,54.38,0,0,0,10,16.94a37.85,37.85,0,0,0,5,12.1,41,41,0,0,0,4.36,5.7l.88.93q1.53,1.59,3.26,3.08h0c.4.34.9,1,.84,1.38a15.18,15.18,0,0,0-.13,2.92,13.71,13.71,0,0,0,2,6.43c-2.31,1.52-4.51,3.05-6.79,4.44S16.44,57.43,17.07,60h9.24c-.31-2.57,0-4.62,1.15-6.08S29.7,51,30.85,49.48A26.14,26.14,0,0,1,29.92,40.13Z"/></svg>