<svg id="Layer_1" data-name="Layer 1" xmlns="http://www.w3.org/2000/svg" xmlns:xlink="http://www.w3.org/1999/xlink" viewBox="0 0 60 60"><defs><style>.cls-1{fill:url(#radial-gradient);}.cls-2{fill:#f2f2f2;opacity:0.25;}.cls-3{fill:url(#linear-gradient);}.cls-4{fill:url(#radial-gradient-2);}.cls-5{fill:url(#linear-gradient-2);}.cls-6{fill:#fff;}.cls-7{opacity:0.3;}</style><radialGradient id="radial-gradient" cx="31.29" cy="21.56" r="13.15" gradientTransform="matrix(0.56, 0.82, -2, 1.32, 57, -26.46)" gradientUnits="userSpaceOnUse"><stop offset="0" stop-color="#077994"/><stop offset="0.19" stop-color="#138da5"/><stop offset="0.51" stop-color="#24a9be"/><stop offset="0.79" stop-color="#2ebacd"/><stop offset="1" stop-color="#32c0d2"/></radialGradient><linearGradient id="linear-gradient" x1="1.54" y1="22.28" x2="70.82" y2="41.07" gradientUnits="userSpaceOnUse"><stop offset="0" stop-color="#32c0d2"/><stop offset="0.39" stop-color="#31bed0"/><stop offset="0.58" stop-color="#2cb6c9"/><stop offset="0.73" stop-color="#24a9be"/><stop offset="0.86" stop-color="#1996ae"/><stop offset="0.97" stop-color="#0a7e99"/><stop offset="0.99" stop-color="#077994"/></linearGradient><radialGradient id="radial-gradient-2" cx="30" cy="24.05" r="33.85" gradientTransform="translate(0 6.35) scale(1 0.98)" gradientUnits="userSpaceOnUse"><stop offset="0.29" stop-color="#077994"/><stop offset="0.43" stop-color="#138da5"/><stop offset="0.65" stop-color="#24a9be"/><stop offset="0.85" stop-color="#2ebacd"/><stop offset="1" stop-color="#32c0d2"/></radialGradient><linearGradient id="linear-gradient-2" x1="51.56" y1="46.49" x2="17.77" y2="19.98" gradientUnits="userSpaceOnUse"><stop offset="0.01" stop-color="#077994"/><stop offset="0.02" stop-color="#097d97"/><stop offset="0.14" stop-color="#1895ad"/><stop offset="0.27" stop-color="#24a8bd"/><stop offset="0.43" stop-color="#2cb6c9"/><stop offset="0.63" stop-color="#31bed0"/><stop offset="1" stop-color="#32c0d2"/></linearGradient></defs><title>icons</title><path class="cls-1" d="M19.5,41.41l.81,2.21L7.15,51.09l-.24-8L0,38.91,11.65,32.3l.63.53,2.91,2.45-.48,3.39h0l-.05.33-.18,1.28,1.28.28ZM53.09,16.89l-.24-8h0l-11.3,6.41-1,.6.68,0,1.31,0,.14,1.29L43,20.91l1.59.79,1.84.91,1.17.57-.49,1.2-1.42,3.5.68.93L60,21.09Z"/><polygon class="cls-2" points="53.09 16.89 44.62 21.7 43.03 20.91 42.64 17.17 42.5 15.88 41.19 15.9 40.51 15.91 41.55 15.32 52.85 8.91 52.85 8.91 53.09 16.89"/><path class="cls-3" d="M12.86,24.38l1.42,3.5-.68.93L0,21.09,6.91,16.9h0l.24-8,12.34,7-.68,0-1.31,0-.14,1.29L17,20.91l-1.6.79-1.82.91-1.18.57ZM48.35,32.3l-.63.53-2.91,2.45.48,3.4.05.33.18,1.28-1.28.28-3.74.84-.81,2.21,13.16,7.47h0l.24-8L60,38.91Z"/><polygon class="cls-2" points="53.09 43.11 52.85 51.09 52.85 51.09 39.69 43.62 40.5 41.41 44.24 40.57 45.52 40.29 45.34 39.01 45.29 38.68 53.09 43.11"/><path class="cls-4" d="M37.15,0V15.67l-1.91-2.84-.73-1.07-1.15.62L30,14.19h0l-3.36-1.8-1.15-.62-.73,1.07-1.91,2.84V0L30,3.79ZM31,47.42l-1,.87-1-.87-2.82-2.54-3.36.87V60L30,56.21,37.15,60V45.75l-3.36-.87Z"/><polygon class="cls-2" points="24.76 12.83 22.85 15.67 22.85 0 30 3.79 30 14.19 26.64 12.38 25.49 11.76 24.76 12.83"/><polygon class="cls-2" points="29.03 47.42 30 48.29 30 56.21 22.85 60 22.85 45.75 26.21 44.88 29.03 47.42"/><path class="cls-5" d="M43.28,34.71l3.51-2.95-.44-.6-1.19-1.64L44.1,28.07l1.71-4.21-2.67-1.32-1.45-.72-.47-4.51L38,17.37H36.6l-2.55-3.78-4,2.18h0L26,13.61,23.4,17.39H22.05l-3.26-.06h0l-.47,4.51-1.45.72-2.67,1.32h0L15,25.78l.94,2.3-1.06,1.44-1.19,1.64h0l-.44.6h0l3.51,2.94-.44,3.07-.2,1.42,3.71.84h0l.79.17,1,2.7.57,1.57.71-.18,3.75-1L30,46.39l3.4-3.07,3.75,1,.71.18.57-1.57,1-2.7,4.5-1-.2-1.41Zm-7.52,4a.33.33,0,0,1-.1.23.35.35,0,0,1-.24.1H25.22A.33.33,0,0,1,25,39a.29.29,0,0,1-.1-.23V36.37a.33.33,0,0,1,.1-.24.32.32,0,0,1,.23-.09h2.91V25.26l-2.67,2.06a.33.33,0,0,1-.53-.18l-.69-3.07,4.65-3.16H32.2a.33.33,0,0,1,.23.1.29.29,0,0,1,.1.23V36h2.89a.34.34,0,0,1,.24.09.37.37,0,0,1,.1.24Z"/><path class="cls-6" d="M13.21,31.76h0l3.51,2.94Zm2.87,7.44,3.71.84h0Z"/><g class="cls-7"><path class="cls-6" d="M41.37,18.82,37.15,23l-1.91,1.88-2.71,2.66V21.24a.29.29,0,0,0-.1-.23.33.33,0,0,0-.23-.1H28.89l-4.65,3.16.69,3.07a.33.33,0,0,0,.53.18l2.67-2.06v6.58L19.79,40l-3.71-.84.2-1.42.44-3.07-3.51-2.94h0l.44-.6h0l1.2-1.64,1.05-1.44L15,25.78l-.77-1.92,2.67-1.32,1.45-.72.48-4.51,3.26.06H23.4L26,13.61,30,15.79h0l4-2.18,2.55,3.78H38l3.27-.06Z"/></g><polygon class="cls-2" points="15.19 35.28 14.71 38.67 14.71 38.68 6.91 43.11 0 38.91 11.65 32.3 12.28 32.83 15.19 35.28"/><polygon class="cls-2" points="12.86 24.38 14.28 27.88 13.6 28.81 0 21.09 6.91 16.9 6.91 16.9 15.37 21.7 13.55 22.61 12.37 23.18 12.86 24.38"/></svg>