<svg id="Layer_1" data-name="Layer 1" xmlns="http://www.w3.org/2000/svg" xmlns:xlink="http://www.w3.org/1999/xlink" viewBox="0 0 60 60"><defs><style>.cls-1{fill:url(#linear-gradient);}.cls-2{fill:url(#New_Gradient_Swatch_3);}.cls-3{fill:#f2f2f2;opacity:0.25;}</style><linearGradient id="linear-gradient" x1="0.19" y1="0.19" x2="38.92" y2="38.92" gradientUnits="userSpaceOnUse"><stop offset="0" stop-color="#32c0d2"/><stop offset="0.21" stop-color="#2ebacd"/><stop offset="0.49" stop-color="#24a9be"/><stop offset="0.81" stop-color="#138da5"/><stop offset="0.99" stop-color="#077994"/></linearGradient><linearGradient id="New_Gradient_Swatch_3" x1="32.39" y1="32.39" x2="58.82" y2="58.82" gradientUnits="userSpaceOnUse"><stop offset="0.01" stop-color="#077994"/><stop offset="0.19" stop-color="#138da5"/><stop offset="0.51" stop-color="#24a9be"/><stop offset="0.79" stop-color="#2ebacd"/><stop offset="1" stop-color="#32c0d2"/></linearGradient></defs><title>icons</title><path class="cls-1" d="M30,33.27a27.36,27.36,0,0,0,2-4.89A28.49,28.49,0,0,1,34.24,23a15.24,15.24,0,0,1,5.53-5.46V3.26A3.25,3.25,0,0,0,36.52,0h-13a3.25,3.25,0,0,0-3.25,3.26v17h-17A3.25,3.25,0,0,0,0,23.48v13a3.25,3.25,0,0,0,3.26,3.25H20.09A13.35,13.35,0,0,0,30,33.27Z"/><path class="cls-2" d="M56.74,20.23H39.81a12.44,12.44,0,0,0-3.57,3.9,26.41,26.41,0,0,0-2.06,5A29.88,29.88,0,0,1,32,34.41a15.76,15.76,0,0,1-11.77,7.68V56.74A3.25,3.25,0,0,0,23.48,60h13a3.25,3.25,0,0,0,3.25-3.26v-17h17A3.25,3.25,0,0,0,60,36.52v-13A3.25,3.25,0,0,0,56.74,20.23Z"/><path class="cls-3" d="M39.69,2.55A3.25,3.25,0,0,0,36.52,0h-13a3.25,3.25,0,0,0-3.25,3.26v17h-17A3.25,3.25,0,0,0,0,23.48v13a3.19,3.19,0,0,0,.22,1.16A25.59,25.59,0,0,0,20.16,28.1a52.7,52.7,0,0,0,5.14-8.71,55.48,55.48,0,0,1,5.75-9.62A28.76,28.76,0,0,1,39.69,2.55Z"/></svg>