<svg id="Layer_1" data-name="Layer 1" xmlns="http://www.w3.org/2000/svg" xmlns:xlink="http://www.w3.org/1999/xlink" viewBox="0 0 60 60"><defs><style>.cls-1{fill:url(#linear-gradient);}.cls-2{fill:url(#New_Gradient_Swatch_3);}.cls-3{fill:url(#linear-gradient-2);}.cls-4{fill:#f2f2f2;opacity:0.25;}</style><linearGradient id="linear-gradient" x1="41.14" y1="-27.08" x2="1.48" y2="59.37" gradientUnits="userSpaceOnUse"><stop offset="0.22" stop-color="#077994"/><stop offset="0.24" stop-color="#0a7e98"/><stop offset="0.39" stop-color="#1b9bb1"/><stop offset="0.53" stop-color="#28afc3"/><stop offset="0.68" stop-color="#2fbcce"/><stop offset="0.82" stop-color="#32c0d2"/></linearGradient><linearGradient id="New_Gradient_Swatch_3" x1="42.01" y1="61.23" x2="29.85" y2="37.22" gradientUnits="userSpaceOnUse"><stop offset="0.01" stop-color="#077994"/><stop offset="0.19" stop-color="#138da5"/><stop offset="0.51" stop-color="#24a9be"/><stop offset="0.79" stop-color="#2ebacd"/><stop offset="1" stop-color="#32c0d2"/></linearGradient><linearGradient id="linear-gradient-2" x1="-2.6" y1="50.81" x2="55.44" y2="10.08" gradientUnits="userSpaceOnUse"><stop offset="0.23" stop-color="#077994"/><stop offset="0.39" stop-color="#0c819b"/><stop offset="0.65" stop-color="#1a98af"/><stop offset="0.97" stop-color="#30bdcf"/><stop offset="1" stop-color="#32c0d2"/></linearGradient></defs><title>icons</title><path class="cls-1" d="M7.8,43.26c-1.23.3-2.48.56-3.74.77l-1.51.23A27.29,27.29,0,0,1,34.7,6.52L24.48,11.85a.77.77,0,0,0,.13,1.42L37,17c-.19.64-.41,1.28-.64,1.92a38.38,38.38,0,0,1-2.89,6.12,37,37,0,0,1-9.1,10.4,42.68,42.68,0,0,1-12.88,6.77C10.24,42.61,9,43,7.8,43.26Z"/><path class="cls-2" d="M54.53,33.09a27.27,27.27,0,0,1-48.33,17c.84,0,1.67,0,2.51,0,1.43-.07,2.87-.18,4.31-.34A53.1,53.1,0,0,0,21.63,48,50.2,50.2,0,0,0,30,44.74,49.94,49.94,0,0,0,44.69,33.62a52.87,52.87,0,0,0,5.68-7.51c.75-1.21,1.46-2.44,2.13-3.71A27.14,27.14,0,0,1,54.53,33.09Z"/><path class="cls-3" d="M59,21.19,52.31,19.1a.81.81,0,0,0-1,.43,53.94,53.94,0,0,1-3,5.54,51.68,51.68,0,0,1-5.45,7.17,47.89,47.89,0,0,1-14,10.58,48.72,48.72,0,0,1-10.71,3.75h-.05l-.49.11c-.64.14-1.28.26-1.92.37l-1,.17h0l-.89.14-.35,0-.83.1c-1.39.15-2.77.26-4.14.31s-2.76,0-4.13,0H4.18a.8.8,0,0,1-.06-1.58h.07c1.32-.21,2.62-.48,3.91-.78s2.55-.66,3.8-1.06l.2-.07.73-.24.69-.24.79-.3.79-.31a43.22,43.22,0,0,0,10.4-5.86,39.5,39.5,0,0,0,9.74-10.93A41.27,41.27,0,0,0,38.36,20a41.41,41.41,0,0,0,1.29-4.05.78.78,0,0,0-.53-.95l-6.52-2a.8.8,0,0,1-.18-1.44L50.78.12a.8.8,0,0,1,1.16.37q4,9.82,8,19.64A.79.79,0,0,1,59,21.19Z"/><path class="cls-4" d="M15.1,43.23l-.79.31-.79.3-.69.24-.73.24-.2.07c-1.25.4-2.52.75-3.8,1.06s-2.59.57-3.91.78H4.12a.8.8,0,0,0,.06,1.58h.11c1.37,0,2.75,0,4.13,0s2.75-.16,4.14-.31l.83-.1.35,0,.89-.14h0l1-.17c.64-.11,1.28-.23,1.92-.37l.49-.11h.05A27.43,27.43,0,0,1,15.1,43.23ZM37,53.92a27.57,27.57,0,0,1-16.7-5.57A55.26,55.26,0,0,1,13,49.68c-1.44.16-2.88.27-4.31.34-.84,0-1.68,0-2.51,0a27.28,27.28,0,0,0,40,2.3A28,28,0,0,1,37,53.92ZM21,6.21A27.26,27.26,0,0,0,2.55,44.26L4.06,44c1.26-.21,2.51-.47,3.74-.77s2.44-.65,3.64-1c.79-.26,1.58-.55,2.36-.85a25.65,25.65,0,0,1-4-13.8A26.1,26.1,0,0,1,21,6.21Z"/></svg>