<svg xmlns="http://www.w3.org/2000/svg" xmlns:xlink="http://www.w3.org/1999/xlink" viewBox="0 0 60 60"><defs><style>.cls-1{fill:none;}.cls-2{isolation:isolate;}.cls-3{clip-path:url(#clip-path);}.cls-4{fill:#077994;}.cls-5{fill:#603913;}.cls-6{fill:#ecb79e;}.cls-7{fill:#d1d3d4;}.cls-15,.cls-7,.cls-9{mix-blend-mode:multiply;}.cls-17,.cls-8{fill:#fff;}.cls-9{fill:#a7a9ac;}.cls-10{fill:#eea73d;}.cls-11{fill:#00a7ab;}.cls-12{fill:#fbb040;}.cls-13{fill:#f6f6f6;}.cls-14{fill:#7f5816;}.cls-15{fill:#bcbec0;}.cls-16{fill:#300000;}.cls-17{opacity:0.3;mix-blend-mode:soft-light;}</style><clipPath id="clip-path"><path class="cls-1" d="M60,0V30.05c0,.43,0,.85,0,1.27a30,30,0,0,1-59.85,0c0-.42,0-.84,0-1.27V0Z"/></clipPath></defs><title>icon_hoi_dap</title><g class="cls-2"><g id="Layer_1" data-name="Layer 1"><g class="cls-3"><circle class="cls-4" cx="29.98" cy="29.95" r="29.95"/><path class="cls-5" d="M42,39.87H18.65a16.68,16.68,0,0,0,1.05-6,16.86,16.86,0,0,0-1.05-5.8H42a14.24,14.24,0,0,0,0,11.76Z"/><rect class="cls-6" x="25.66" y="37.65" width="8.69" height="7.57"/><path class="cls-7" d="M28.26,43.45a6.85,6.85,0,0,0,4.15-1.78,9.11,9.11,0,0,0,1.15-1.2,6.11,6.11,0,0,0,.78-1.58V37.65H25.63v5.66A13.65,13.65,0,0,0,28.26,43.45Z"/><path class="cls-6" d="M41.93,20.39a32.22,32.22,0,0,0-1,4.69c-.16,1.15-.18,1.84-.22,2.32a15.13,15.13,0,0,1-4.76,9.07A15.48,15.48,0,0,1,29.63,40a15.48,15.48,0,0,1-6.31-3.55,15.13,15.13,0,0,1-4.76-9.07c0-.48-.06-1.17-.22-2.32a32.22,32.22,0,0,0-1-4.69c-.74-2.8.18-6.86,2.4-9.8a12.41,12.41,0,0,1,19.8,0C41.75,13.53,42.67,17.59,41.93,20.39Z"/><path class="cls-6" d="M41.13,22.86l-.72,5.5c2.82,1.24,3.26-5.23,3.26-5.23C43,21.52,41.13,22.86,41.13,22.86Z"/><path class="cls-6" d="M15.49,23.13s.44,6.47,3.26,5.23L18,22.86S16.14,21.52,15.49,23.13Z"/><path class="cls-8" d="M29,59.94,10.06,60a28.6,28.6,0,0,1,1.67-8.84,13.1,13.1,0,0,1,.88-2.11c2.22-4,7.76-5.2,10.8-5.58Z"/><path class="cls-9" d="M19.68,51s4.41-3.21,8.58-1c0,0-2.5-6.21-8.58,1"/><path class="cls-10" d="M28.62,50.59s-2-5.16-8.94.4l3.39-7.43a2,2,0,0,1,.64-.45A2.09,2.09,0,0,1,25,43Z"/><path class="cls-9" d="M40.37,51s-5.33-3.7-8.75-.82c0,0,2.68-6.42,8.75.82"/><path class="cls-11" d="M31.62,50.17s1.86-4.74,8.75.82l-2.46-7.16L35,43Z"/><path class="cls-6" d="M49.94,60,31,60H28.92L10,60c0-.54.05-1.16.12-1.83q5.85-6,11.7-11.91c.61-.61,1.21-1.23,1.81-1.84l1.27-1.29H35l1.27,1.29c.6.61,1.2,1.23,1.81,1.84q5.84,6,11.7,11.91C49.89,58.8,49.92,59.42,49.94,60Z"/><path class="cls-8" d="M49.94,60,31,60H28.92L10,60c0-.54.05-1.16.12-1.83q5.85-6,11.7-11.91c.61-.61,1.21-1.23,1.81-1.84l1.27-1.29,3.49,7.23s.05.1.07.14l0,0a.3.3,0,0,1,0,.08l0,.09,1.4,2.9,1.4-2.9,0-.09a.3.3,0,0,1,0-.08l0,0s0-.09.07-.14L35,43.09l1.27,1.29c.6.61,1.2,1.23,1.81,1.84q5.84,6,11.7,11.91C49.89,58.8,49.92,59.42,49.94,60Z"/><path class="cls-12" d="M28.92,60,10,60.07A.41.41,0,0,1,10,60c0-.54.05-1.16.12-1.83a29.22,29.22,0,0,1,1.54-6.9,14.08,14.08,0,0,1,.89-2.11C14.72,45.23,20,44,23.07,43.58l.3,0,.28.84c.36,1.06.72,2.12,1.07,3.18l.32.93c.09.26.18.53.26.79Z"/><path class="cls-9" d="M19.64,51.06s4.4-3.21,8.57-1c0,0-2.5-6.22-8.57,1Z"/><path class="cls-13" d="M28.57,50.66s-2-5.16-8.93.4L23,43.63a2.07,2.07,0,0,1,.64-.45,2,2,0,0,1,1.3-.09Z"/><path class="cls-12" d="M31,60,50,60.07a.41.41,0,0,0,0-.11c0-.54,0-1.16-.12-1.83a29.22,29.22,0,0,0-1.54-6.9,14.08,14.08,0,0,0-.89-2.11C45.24,45.23,40,44,36.89,43.58l-.3,0c-.09.28-.19.56-.28.84-.36,1.06-.72,2.12-1.07,3.18l-.32.93c-.09.26-.18.53-.26.79Z"/><path class="cls-9" d="M40.31,51.06s-4.4-3.21-8.57-1c0,0,2.5-6.22,8.57,1Z"/><path class="cls-13" d="M31.38,50.66s2-5.16,8.93.4l-3.38-7.43a2.07,2.07,0,0,0-.64-.45,2,2,0,0,0-1.3-.09Z"/><circle class="cls-14" cx="30.02" cy="55.03" r="0.63"/><circle class="cls-14" cx="30.02" cy="57.3" r="0.63"/><path class="cls-15" d="M18.68,15.74c5.84,2,11.42,1.07,14-2.25A7.7,7.7,0,0,0,34.12,10l-1.46-.64A22.6,22.6,0,0,0,23.8,12,22.17,22.17,0,0,0,18.68,15.74Z"/><path class="cls-15" d="M33.34,10.69A5.16,5.16,0,0,0,33.85,14a5.33,5.33,0,0,0,3.55,2.59,4.4,4.4,0,0,0-1.06-5.32A4,4,0,0,0,33.34,10.69Z"/><path class="cls-16" d="M22,14.81a11.94,11.94,0,0,0,7.5,0A8,8,0,0,0,33,12a6.68,6.68,0,0,0,1.13-2.25L33,9.36a13.84,13.84,0,0,1-5.36,4A19.34,19.34,0,0,1,22,14.81Z"/><path class="cls-5" d="M33.68,10.39a9.68,9.68,0,0,1-4.6,4.19c-2.88,1.13-4.81-.14-7.06.92-1.43.68-3.2,2.4-4.08,7.3l-.81-.38a13.06,13.06,0,0,1-.94-5.69c0-.35.65-7.93,7.32-11,5.69-2.66,11.07.14,11.65.46a9.11,9.11,0,0,1,5.89,2.25c2.08,1.94,2.46,4.44,2.81,6.75a18,18,0,0,1-.49,7.51,1.55,1.55,0,0,0-.62-.3,1.78,1.78,0,0,0-1.42.38,6.81,6.81,0,0,0-1.51-4.06A10.41,10.41,0,0,0,37,16.76C35.75,15.91,34.31,14.19,33.68,10.39Z"/><path class="cls-17" d="M31.23,9.21a6.17,6.17,0,0,1-2,3c-2.67,2.21-6.35,1.61-6.78,1.53a14.16,14.16,0,0,0,1.8-.35,15.26,15.26,0,0,0,2.14-.72l-4-.45a9.6,9.6,0,0,0,4.26-.55,9.41,9.41,0,0,0,2.69-1.53l-.36.7Z"/><path class="cls-17" d="M35.73,10.59a4.18,4.18,0,0,0,1,2.86c1,1.15,2.4,1,3.78,2.36a5.52,5.52,0,0,1,1.13,1.63c.06.13-.5-2.85-2.51-4a15.53,15.53,0,0,1-1.43-.66A5.63,5.63,0,0,1,35.73,10.59Z"/></g></g></g></svg>