<svg xmlns="http://www.w3.org/2000/svg" xmlns:xlink="http://www.w3.org/1999/xlink" viewBox="0 0 60 60"><defs><style>.cls-1{fill:none;}.cls-2{isolation:isolate;}.cls-3{fill:#077994;}.cls-4{clip-path:url(#clip-path);}.cls-5{fill:#ecb79e;}.cls-6{fill:#d1d3d4;}.cls-11,.cls-20,.cls-6,.cls-9{mix-blend-mode:multiply;}.cls-7{fill:#00bbc0;}.cls-14,.cls-16,.cls-19,.cls-8{fill:#fff;}.cls-21,.cls-9{fill:#a7a9ac;}.cls-10{fill:#00a7ab;}.cls-11,.cls-18{fill:#bcbec0;}.cls-12{fill:#440d02;}.cls-13{fill:#300000;}.cls-14{opacity:0.5;}.cls-14,.cls-19{mix-blend-mode:soft-light;}.cls-15{fill:#231f20;}.cls-16{opacity:0.2;}.cls-17{fill:#151e31;}.cls-20{fill:#808285;}.cls-22{fill:#939598;}</style><clipPath id="clip-path"><path class="cls-1" d="M60,0V30.05c0,.43,0,.85,0,1.27a29.95,29.95,0,0,1-59.84,0c0-.42,0-.84,0-1.27V0Z"/></clipPath></defs><title>icon_hoi_dap</title><g class="cls-2"><g id="Layer_1" data-name="Layer 1"><circle class="cls-3" cx="29.95" cy="29.95" r="29.95"/><g class="cls-4"><rect class="cls-5" x="24.94" y="37.65" width="10.07" height="7.57"/><path class="cls-6" d="M27.76,43.45a7.58,7.58,0,0,0,4.44-1.78,9.79,9.79,0,0,0,2.44-3l.38-.76v-.27H24.94v5.66A15.73,15.73,0,0,0,27.76,43.45Z"/><path class="cls-5" d="M29.61,5.65C22.77,5.8,16.28,11.2,17.3,20.39c.62,5.55,1.11,6.37,2.76,12.74,1.14,4.41,7.23,6.73,9.55,6.89,2.32-.16,8.4-2.48,9.55-6.89,1.65-6.37,2.13-7.19,2.75-12.74C42.94,11.2,36.45,5.8,29.61,5.65Z"/><path class="cls-5" d="M41.1,22.86l-.71,5.5c2.82,1.24,3.26-5.23,3.26-5.23C43,21.52,41.1,22.86,41.1,22.86Z"/><path class="cls-5" d="M15.47,23.13s.44,6.47,3.26,5.23L18,22.86S16.12,21.52,15.47,23.13Z"/><path class="cls-5" d="M35,43l13.36,3.75s4.56.75,5.73,5.17l2,8H3.9l2-8c1.17-4.42,5.73-5.17,5.73-5.17L24.94,43Z"/><path class="cls-7" d="M35,43l13.36,3.75s4.56.75,5.73,5.17l2,8H3.9l2-8c1.17-4.42,5.73-5.17,5.73-5.17L24.94,43,30,53.49Z"/><path class="cls-8" d="M23,59.94H3.9l2-8c1.17-4.42,5.73-5.17,5.73-5.17l11.77-3.3Z"/><path class="cls-8" d="M37.33,43.67l11.05,3.1s4.56.75,5.73,5.17l2,8H37.05Z"/><path class="cls-9" d="M19.66,51s4.41-3.21,8.57-1c0,0-2.5-6.21-8.57,1"/><path class="cls-10" d="M28.6,50.59s-2.05-5.16-8.94.4l2.46-7.17L25,43Z"/><path class="cls-9" d="M40.35,51s-5.33-3.7-8.75-.82c0,0,2.67-6.42,8.75.82"/><path class="cls-10" d="M31.6,50.17s1.85-4.74,8.75.82l-2.46-7.16L35,43Z"/><path class="cls-11" d="M22.24,10.48s-1.45,5.46,8.64,8.34c0,0,7.77,1.53,11-.49C41.85,18.33,38.87,5.91,22.24,10.48Z"/><path class="cls-12" d="M43.65,11.5a40.18,40.18,0,0,1-1.44,11.15c-.16.55-.78,2.16-.78,2.16h-.52V21.25c-.31-5.09-.65-5.13-.65-5.13C30.18,18.91,24,13.78,24,13.78a7.2,7.2,0,0,1-1.39-1.66A8.67,8.67,0,0,0,20.23,15a13.2,13.2,0,0,0-1.38,6.93v3.58l-.55-.22-.75-2.82A58.82,58.82,0,0,1,17.15,10s1-6.07,8.36-7.42c0,0,13-1.21,16.51,3.11A9.55,9.55,0,0,1,43.65,11.5Z"/><path class="cls-13" d="M21.69,7.07a7.88,7.88,0,0,0-.07,1A8.42,8.42,0,0,0,22,10.75a7.24,7.24,0,0,0,.73,1.59A6.65,6.65,0,0,0,24,13.79a8.3,8.3,0,0,0,.82.61l.46.26.23.14.24.11.48.23.51.18c.34.14.7.22,1.05.33l.53.13.54.12c.36.07.72.11,1.08.17.73.08,1.44.17,2.14.19s1.38,0,2,0c.32,0,.64,0,.94,0l.88,0,1.54-.09c.46,0,.86-.06,1.19-.08L39.7,16l-1,.24c-.33.07-.72.17-1.18.24L36,16.77c-.57.06-1.19.14-1.84.19s-1.35.09-2.07.07c-.36,0-.73,0-1.1,0s-.74,0-1.12-.09-.76-.1-1.14-.17l-.57-.12c-.19,0-.38-.07-.57-.13-.37-.12-.75-.21-1.11-.36l-.55-.21-.53-.26-.26-.13-.25-.15-.49-.3a10.22,10.22,0,0,1-.88-.72,6.27,6.27,0,0,1-1.31-1.69,6.91,6.91,0,0,1-.67-1.79,7.76,7.76,0,0,1-.16-1.58,8,8,0,0,1,.1-1.21c.05-.33.12-.59.16-.76Z"/><path class="cls-14" d="M22.92,8.19a10.67,10.67,0,0,0,8,6.79s-3.13-1.54-4-4.17a6.11,6.11,0,0,0,4,1.83s-4.13-3.2-4.24-5.05a2.74,2.74,0,0,0-.41,3.69S25,11.07,22.92,8.19Z"/><path class="cls-14" d="M33.57,4.67s8-.14,8.45,7.78A3.93,3.93,0,0,0,39.7,9.87a11.64,11.64,0,0,1,2.15,8.46S42.87,14.55,36,9a6.67,6.67,0,0,1,4.42.29S38.94,5.69,33.57,4.67Z"/><path class="cls-15" d="M24.11,19.41c-2.41,0-4.84-.12-4.67,3.57a4.37,4.37,0,0,0,4,4.27,5,5,0,0,0,5.09-3.55C29,21.78,30.08,19.46,24.11,19.41ZM28,23.65a4.32,4.32,0,0,1-4.4,3.06A3.76,3.76,0,0,1,20.08,23c-.15-3.19,2-3.1,4-3.08C29.26,20,28.34,22,28,23.65Z"/><path class="cls-15" d="M31.23,23.93a5,5,0,0,0,5.16,3.45,4.37,4.37,0,0,0,4-4.35c.09-3.69-2.33-3.54-4.74-3.47C29.64,19.72,30.75,22,31.23,23.93Zm4.39-3.84c2.08-.05,4.18-.18,4.09,3a3.77,3.77,0,0,1-3.41,3.75,4.31,4.31,0,0,1-4.45-3C31.43,22.22,30.47,20.23,35.62,20.09Z"/><path class="cls-15" d="M28.82,21.93a2.29,2.29,0,0,1,2.5,0,1.46,1.46,0,0,1,.25-1.39,4.14,4.14,0,0,0-3,0A3.37,3.37,0,0,1,28.82,21.93Z"/><path class="cls-15" d="M20.71,19.86l-3.41.53.25,2.09,2.24,1.18A5.12,5.12,0,0,1,20.71,19.86Z"/><path class="cls-15" d="M39.35,20.15l3.27,1L42.11,23l-1.93,1A5.14,5.14,0,0,0,39.35,20.15Z"/><path class="cls-16" d="M35.62,20.09c2.08-.05,4.18-.18,4.09,3a3.77,3.77,0,0,1-3.41,3.75,4.31,4.31,0,0,1-4.45-3C31.43,22.22,30.47,20.23,35.62,20.09Z"/><path class="cls-16" d="M28,23.63a4.32,4.32,0,0,1-4.4,3.06A3.76,3.76,0,0,1,20.08,23c-.15-3.19,2-3.1,4-3.08C29.26,20,28.34,22,28,23.63Z"/><path class="cls-17" d="M25,40.31h-.85A5.74,5.74,0,0,0,20.22,42c-2.41,2.29-4.41,8.72-4,15.55h1.44c-.47-7.4,2.07-13.07,3.51-14.46a4.32,4.32,0,0,1,2.89-1.36H25Z"/><path class="cls-17" d="M40.26,41.65c-1-1-2.6-1.48-4.87-1.34H35v1.44h.48c1.79-.12,3.07.18,3.72.87a1.75,1.75,0,0,1,.48,1.3l1.43.19A3.28,3.28,0,0,0,40.26,41.65Z"/><path class="cls-18" d="M45.62,51.36a.32.32,0,0,1,.33.31,30.48,30.48,0,0,1-.24,4.9,4.73,4.73,0,0,1-.48,1.58,2.83,2.83,0,0,1-2.64,1.65.33.33,0,1,1,0-.66c2.21,0,2.45-2.53,2.46-2.64h0a29.18,29.18,0,0,0,.24-4.78.34.34,0,0,1,.32-.35Z"/><path class="cls-11" d="M42.59,59.8a2.83,2.83,0,0,0,2.64-1.65,4.73,4.73,0,0,0,.48-1.58,30.48,30.48,0,0,0,.24-4.9.32.32,0,0,0-.33-.31h0a.34.34,0,0,0-.32.35,2.07,2.07,0,0,1,0,.23h0a.29.29,0,0,1,.29.28,28.87,28.87,0,0,1-.22,4.32A4.31,4.31,0,0,1,45,57.93a2.51,2.51,0,0,1-2.33,1.46.31.31,0,0,1-.27-.18.32.32,0,0,0-.13.26A.33.33,0,0,0,42.59,59.8Z"/><path class="cls-18" d="M35.38,51.36a.33.33,0,0,0-.33.31,30.48,30.48,0,0,0,.24,4.9,4.73,4.73,0,0,0,.48,1.58,2.84,2.84,0,0,0,2.64,1.65.33.33,0,0,0,0-.66c-2.2,0-2.45-2.53-2.46-2.64h0a30.59,30.59,0,0,1-.24-4.78.33.33,0,0,0-.32-.35Z"/><path class="cls-11" d="M38.41,59.8a2.84,2.84,0,0,1-2.64-1.65,4.73,4.73,0,0,1-.48-1.58,30.48,30.48,0,0,1-.24-4.9.33.33,0,0,1,.33-.31h0a.33.33,0,0,1,.32.35,2.07,2.07,0,0,0,0,.23h0a.3.3,0,0,0-.3.28,28.87,28.87,0,0,0,.22,4.32A4.31,4.31,0,0,0,36,57.93a2.51,2.51,0,0,0,2.33,1.46.3.3,0,0,0,.27-.18.32.32,0,0,1,.13.26A.33.33,0,0,1,38.41,59.8Z"/><path class="cls-17" d="M40.27,43.59h.09a5,5,0,0,1,3.41,1.25c2.66,2.39,2.52,7.43,2.51,7.64a.63.63,0,0,1-.68.56.62.62,0,0,1-.64-.6c0-.06.13-4.76-2.14-6.79a3.53,3.53,0,0,0-2.5-.9h0a3.25,3.25,0,0,0-2,.82c-1,.85-2.2,2.73-2.2,6.89a.63.63,0,0,1-.66.58.62.62,0,0,1-.66-.58c0-3.7.89-6.31,2.65-7.76A4.77,4.77,0,0,1,40.27,43.59Z"/><path class="cls-9" d="M35.38,53a.63.63,0,0,0,.66-.55.55.55,0,0,1-.58-.51c0-3.22.78-5.5,2.31-6.76a4.12,4.12,0,0,1,2.53-1h.08a4.29,4.29,0,0,1,3,1.08c2.33,2.09,2.2,6.47,2.2,6.66a.55.55,0,0,1-.58.49.67.67,0,0,0,1.32,0c0-.21.15-5.25-2.51-7.64a5,5,0,0,0-3.41-1.25h-.09a4.77,4.77,0,0,0-2.9,1.11c-1.76,1.45-2.65,4.06-2.65,7.76A.62.62,0,0,0,35.38,53Z"/><path class="cls-17" d="M41.29,59.43a.58.58,0,0,1,.57-.57l1.06.09c.33.09.32.26.33.48h0c0,.24,0,.41-.35.5l-1,.07a.57.57,0,0,1-.57-.57Z"/><path class="cls-19" d="M42.08,59.43a.57.57,0,0,0-.54.27.55.55,0,0,0,.39.16l.63,0C42.59,59.51,42.4,59.43,42.08,59.43Z"/><path class="cls-20" d="M42.31,59.13a.7.7,0,0,1,.65.78c.29-.09.29-.26.29-.48s0-.39-.33-.48l-1.06-.09a.57.57,0,0,0-.56.46A1.29,1.29,0,0,1,42.31,59.13Z"/><path class="cls-17" d="M40,59.43a.58.58,0,0,0-.57-.57L38.39,59c-.33.09-.32.26-.33.48h0c0,.24,0,.41.36.5l1,.07a.57.57,0,0,0,.57-.57Z"/><path class="cls-19" d="M39.23,59.43a.58.58,0,0,1,.55.27.56.56,0,0,1-.4.16l-.63,0C38.73,59.51,38.91,59.43,39.23,59.43Z"/><path class="cls-20" d="M39,59.13a.7.7,0,0,0-.64.78c-.3-.09-.3-.26-.3-.48s0-.39.33-.48l1.07-.09a.59.59,0,0,1,.56.46A1.31,1.31,0,0,0,39,59.13Z"/><path class="cls-17" d="M14.1,56.9A3.1,3.1,0,1,1,17.2,60,3.1,3.1,0,0,1,14.1,56.9Z"/><path class="cls-21" d="M15,56.9a2.25,2.25,0,1,1,2.25,2.25A2.25,2.25,0,0,1,15,56.9Z"/><path class="cls-22" d="M15.3,56.9a1.9,1.9,0,1,1,1.9,1.89A1.89,1.89,0,0,1,15.3,56.9Z"/></g></g></g></svg>